<svg width="28" height="28" viewBox="0 0 28 28" fill="none" xmlns="http://www.w3.org/2000/svg">
<path d="M4.38281 28C1.96225 28 0 26.0377 0 23.6172V4.38281C0 1.96225 1.96225 0 4.38281 0H23.6172C26.0377 0 28 1.96225 28 4.38281V23.6172C28 26.0377 26.0377 28 23.6172 28H4.38281ZM10.2164 16.5365C10.4513 16.2734 10.8511 16.2399 11.1265 16.4603L14.8108 19.4077C15.0863 19.6281 15.486 19.5946 15.721 19.3314L21.4281 12.939C21.6723 12.6655 21.6485 12.2457 21.3749 12.0014L20.625 11.3319C20.3514 11.0876 19.9317 11.1114 19.6874 11.385L15.4503 16.1301C15.2153 16.3933 14.8156 16.4268 14.5401 16.2064L10.8559 13.259C10.5804 13.0386 10.1807 13.0721 9.9457 13.3353L4.2386 19.7276C3.99435 20.0012 4.01813 20.421 4.29172 20.6653L5.04167 21.3348C5.31524 21.579 5.735 21.5553 5.97925 21.2817L10.2164 16.5365ZM25.0833 8.16667C25.0833 7.70254 24.899 7.25742 24.5708 6.92923C24.2426 6.60104 23.7975 6.41667 23.3333 6.41667C22.8692 6.41667 22.4241 6.60104 22.0959 6.92923C21.7677 7.25742 21.5833 7.70254 21.5833 8.16667C21.5833 8.6308 21.7677 9.07591 22.0959 9.4041C22.4241 9.73229 22.8692 9.91667 23.3333 9.91667C23.7975 9.91667 24.2426 9.73229 24.5708 9.4041C24.899 9.07591 25.0833 8.6308 25.0833 8.16667Z" fill="white"/>
</svg>
