<svg width="30" height="29" viewBox="0 0 30 29" fill="none" xmlns="http://www.w3.org/2000/svg">
<path d="M29.3791 13.8125L15.7485 0.307573C15.6504 0.210073 15.5338 0.132721 15.4055 0.0799435C15.2771 0.0271661 15.1396 0 15.0006 0C14.8617 0 14.7241 0.0271661 14.5958 0.0799435C14.4675 0.132721 14.3509 0.210073 14.2527 0.307573L0.62213 13.8125C0.225026 14.2062 0 14.741 0 15.2988C0 16.457 0.949741 17.3987 2.11789 17.3987H3.55409V27.0352C3.55409 27.6159 4.0273 28.0851 4.61303 28.0851H12.8827V20.7355H16.589V28.0851H25.3882C25.9739 28.0851 26.4472 27.6159 26.4472 27.0352V17.3987H27.8834C28.4459 17.3987 28.9853 17.1788 29.3824 16.7818C30.2064 15.9616 30.2064 14.6327 29.3791 13.8125Z" fill="white"/>
</svg>
