<svg width="31" height="34" viewBox="0 0 31 34" fill="none" xmlns="http://www.w3.org/2000/svg">
<path d="M18.223 6.29248L20.0381 9.43641C20.2039 9.72354 20.2488 10.0648 20.163 10.385C20.0772 10.7053 19.8677 10.9783 19.5806 11.1441C19.2934 11.3099 18.9522 11.3548 18.632 11.269C18.3117 11.1832 18.0387 10.9736 17.8729 10.6865L14.9601 5.6415C14.7944 5.35437 14.7494 5.01314 14.8353 4.69289C14.9211 4.37264 15.1306 4.0996 15.4177 3.93382L20.4584 1.02358C20.7455 0.857806 21.0867 0.812883 21.407 0.898694C21.7273 0.984505 22.0003 1.19402 22.1661 1.48115C22.3318 1.76828 22.3768 2.1095 22.291 2.42975C22.2051 2.75 21.9956 3.02305 21.7085 3.18882L19.998 4.17641C22.778 5.04848 25.2439 6.71124 27.0945 8.96163C28.9451 11.212 30.1003 13.9526 30.4191 16.8487C30.7379 19.7448 30.2064 22.6711 28.8895 25.2701C27.5726 27.8691 25.5274 30.0284 23.0036 31.4842C19.5585 33.4733 15.4643 34.0125 11.6216 32.9832C7.77892 31.9539 4.50244 29.4404 2.51279 25.9955C0.523502 22.55 -0.0155735 18.4553 1.01416 14.6123C1.9356 11.1734 4.04571 8.18813 6.94817 6.1729C7.51529 5.77914 8.28347 5.98816 8.62868 6.58608C8.97389 7.18399 8.76456 7.94363 8.20409 8.34679C5.87304 10.0235 4.17893 12.4613 3.42918 15.2594C2.57107 18.4619 3.02029 21.8741 4.67803 24.7454C6.33578 27.6167 9.06624 29.7119 12.2687 30.57C15.4713 31.4281 18.8835 30.9789 21.7548 29.3211C23.9355 28.0623 25.6852 26.1743 26.7749 23.9043C27.8645 21.6344 28.2433 19.0883 27.8616 16.5994C27.4799 14.1106 26.3555 11.795 24.6357 9.95588C22.9158 8.11679 20.6807 6.83992 18.223 6.29248Z" fill="white"/>
<path d="M18.223 6.29248L20.0381 9.43641C20.2039 9.72354 20.2488 10.0648 20.163 10.385C20.0772 10.7053 19.8677 10.9783 19.5806 11.1441C19.2934 11.3099 18.9522 11.3548 18.632 11.269C18.3117 11.1832 18.0387 10.9736 17.8729 10.6865L14.9601 5.6415C14.7944 5.35437 14.7494 5.01314 14.8353 4.69289C14.9211 4.37264 15.1306 4.0996 15.4177 3.93382L20.4584 1.02358C20.7455 0.857806 21.0867 0.812883 21.407 0.898694C21.7273 0.984505 22.0003 1.19402 22.1661 1.48115C22.3318 1.76828 22.3768 2.1095 22.291 2.42975C22.2051 2.75 21.9956 3.02305 21.7085 3.18882L19.998 4.17641C22.778 5.04848 25.2439 6.71124 27.0945 8.96163C28.9451 11.212 30.1003 13.9526 30.4191 16.8487C30.7379 19.7448 30.2064 22.6711 28.8895 25.2701C27.5726 27.8691 25.5274 30.0284 23.0036 31.4842C19.5585 33.4733 15.4643 34.0125 11.6216 32.9832C7.77892 31.9539 4.50244 29.4404 2.51279 25.9955C0.523502 22.55 -0.0155735 18.4553 1.01416 14.6123C1.9356 11.1734 4.04571 8.18813 6.94817 6.1729C7.51529 5.77914 8.28347 5.98816 8.62868 6.58608C8.97389 7.18399 8.76456 7.94363 8.20409 8.34679C5.87304 10.0235 4.17893 12.4613 3.42918 15.2594C2.57107 18.4619 3.02029 21.8741 4.67803 24.7454C6.33578 27.6167 9.06624 29.7119 12.2687 30.57C15.4713 31.4281 18.8835 30.9789 21.7548 29.3211C23.9355 28.0623 25.6852 26.1743 26.7749 23.9043C27.8645 21.6344 28.2433 19.0883 27.8616 16.5994C27.4799 14.1106 26.3555 11.795 24.6357 9.95588C22.9158 8.11679 20.6807 6.83992 18.223 6.29248Z" stroke="white"/>
</svg>
